<svg xmlns="http://www.w3.org/2000/svg" xmlns:xlink="http://www.w3.org/1999/xlink" width="500" zoomAndPan="magnify" viewBox="0 0 375 374.999991" height="500" preserveAspectRatio="xMidYMid meet" version="1.2"><defs><clipPath id="54ea9d2968"><path d="M 105.5625 103.238281 L 279.5625 103.238281 L 279.5625 214.238281 L 105.5625 214.238281 Z M 105.5625 103.238281 "/></clipPath></defs><g id="3b1b6c31aa"><g clip-rule="nonzero" clip-path="url(#54ea9d2968)"><path style=" stroke:none;fill-rule:evenodd;fill:#c6ab7c;fill-opacity:1;" d="M 143.03125 163.558594 L 152.65625 169.113281 C 153.484375 169.589844 153.769531 170.65625 153.289062 171.484375 L 147.730469 181.105469 C 147.257812 181.933594 146.191406 182.214844 145.367188 181.742188 L 135.738281 176.183594 C 134.914062 175.703125 134.628906 174.640625 135.105469 173.816406 L 140.664062 164.1875 C 141.140625 163.367188 142.207031 163.082031 143.03125 163.558594 M 154.390625 143.882812 L 164.015625 149.441406 C 164.839844 149.917969 165.128906 150.980469 164.648438 151.808594 L 159.089844 161.433594 C 158.617188 162.257812 157.550781 162.546875 156.722656 162.066406 L 147.097656 156.507812 C 146.273438 156.035156 145.992188 154.96875 146.464844 154.140625 L 152.023438 144.511719 C 152.5 143.695312 153.5625 143.410156 154.390625 143.882812 Z M 165.746094 124.210938 L 175.371094 129.765625 C 176.195312 130.242188 176.480469 131.308594 176.003906 132.136719 L 170.445312 141.757812 C 169.96875 142.585938 168.90625 142.867188 168.078125 142.394531 L 158.457031 136.839844 C 157.632812 136.363281 157.347656 135.296875 157.824219 134.472656 L 163.382812 124.847656 C 163.855469 124.019531 164.921875 123.734375 165.746094 124.210938 Z M 242.351562 194.671875 L 251.976562 200.230469 C 252.800781 200.703125 253.085938 201.769531 252.613281 202.597656 L 247.054688 212.21875 C 246.582031 213.046875 245.515625 213.332031 244.6875 212.855469 L 235.0625 207.296875 C 234.238281 206.816406 233.949219 205.753906 234.429688 204.929688 L 239.988281 195.300781 C 240.457031 194.476562 241.523438 194.191406 242.351562 194.671875 Z M 253.710938 174.996094 L 263.335938 180.554688 C 264.160156 181.03125 264.441406 182.097656 263.972656 182.921875 L 258.414062 192.550781 C 257.9375 193.378906 256.875 193.664062 256.050781 193.183594 L 246.421875 187.625 C 245.597656 187.152344 245.3125 186.085938 245.789062 185.257812 L 251.347656 175.632812 C 251.820312 174.804688 252.882812 174.519531 253.710938 174.996094 Z M 257.605469 154.027344 L 262.265625 156.714844 L 257.144531 165.585938 C 256.667969 166.410156 256.949219 167.472656 257.777344 167.953125 L 267.402344 173.511719 C 268.226562 173.984375 269.289062 173.703125 269.769531 172.875 L 274.890625 164.003906 L 279.433594 166.628906 L 252.011719 214.117188 L 222.917969 214.117188 Z M 136.808594 200.023438 C 136.335938 200.851562 135.269531 201.136719 134.441406 200.65625 L 124.816406 195.101562 C 123.992188 194.625 123.710938 193.558594 124.183594 192.730469 L 129.304688 183.859375 C 129.78125 183.039062 130.847656 182.753906 131.671875 183.226562 L 141.296875 188.785156 C 142.125 189.261719 142.410156 190.324219 141.929688 191.152344 Z M 134.726562 214.113281 L 141.347656 202.644531 L 146.46875 193.777344 L 191.46875 115.839844 L 186.929688 113.222656 L 181.808594 122.085938 C 181.332031 122.910156 180.265625 123.199219 179.441406 122.71875 L 169.816406 117.160156 C 168.992188 116.6875 168.703125 115.621094 169.183594 114.792969 L 174.304688 105.929688 L 169.644531 103.238281 L 124.648438 181.175781 L 119.527344 190.042969 L 105.632812 214.113281 L 112.808594 214.113281 C 112.527344 213.597656 112.511719 212.953125 112.824219 212.410156 L 118.382812 202.785156 C 118.859375 201.957031 119.925781 201.675781 120.75 202.152344 L 130.375 207.710938 C 131.203125 208.183594 131.488281 209.25 131.007812 210.074219 L 128.675781 214.113281 Z M 148.777344 214.113281 L 151.886719 208.730469 L 157.007812 199.863281 L 170.167969 177.066406 C 171.976562 173.933594 176.015625 172.855469 179.148438 174.660156 L 212.828125 194.105469 C 215.957031 195.914062 217.042969 199.953125 215.230469 203.085938 L 208.867188 214.113281 Z M 247.070312 147.9375 L 228.792969 179.605469 C 226.984375 182.734375 222.945312 183.816406 219.8125 182.011719 L 186.128906 162.566406 C 183 160.757812 181.917969 156.71875 183.722656 153.585938 L 202.003906 121.917969 Z M 247.070312 147.9375 "/></g><g style="fill:#242424;fill-opacity:1;"><g transform="translate(108.18494, 252.056535)"><path style="stroke:none" d="M 1.828125 -25.15625 L 7.375 -25.15625 L 7.375 -15.28125 L 7.546875 -15.28125 L 15.953125 -25.15625 L 22.3125 -25.15625 L 13.296875 -14.515625 L 22.3125 0 L 16.03125 0 L 9.8125 -10.671875 L 7.375 -7.984375 L 7.375 0 L 1.828125 0 Z M 1.828125 -25.15625 "/></g></g><g style="fill:#242424;fill-opacity:1;"><g transform="translate(132.009935, 252.056535)"><path style="stroke:none" d="M 4.171875 -13.40625 L 17.078125 -13.40625 L 17.078125 -9.015625 L 4.171875 -9.015625 Z M 4.171875 -13.40625 "/></g></g><g style="fill:#242424;fill-opacity:1;"><g transform="translate(153.247596, 252.056535)"><path style="stroke:none" d="M 18.078125 -4.890625 L 18.078125 0 L 1.875 0 L 1.875 -25.15625 L 7.515625 -25.15625 L 7.46875 -4.890625 Z M 18.078125 -4.890625 "/></g></g><g style="fill:#242424;fill-opacity:1;"><g transform="translate(172.472894, 252.056535)"><path style="stroke:none" d="M 12.96875 0.328125 C 10.457031 0.328125 8.328125 -0.25 6.578125 -1.40625 C 4.828125 -2.570312 3.515625 -4.128906 2.640625 -6.078125 C 1.765625 -8.035156 1.328125 -10.203125 1.328125 -12.578125 C 1.328125 -14.953125 1.769531 -17.132812 2.65625 -19.125 C 3.539062 -21.113281 4.859375 -22.695312 6.609375 -23.875 C 8.359375 -25.0625 10.476562 -25.65625 12.96875 -25.65625 C 15.414062 -25.65625 17.503906 -25.066406 19.234375 -23.890625 C 20.972656 -22.722656 22.28125 -21.140625 23.15625 -19.140625 C 24.03125 -17.140625 24.46875 -14.941406 24.46875 -12.546875 C 24.46875 -10.148438 24.03125 -7.972656 23.15625 -6.015625 C 22.28125 -4.066406 20.972656 -2.519531 19.234375 -1.375 C 17.503906 -0.238281 15.414062 0.328125 12.96875 0.328125 Z M 12.9375 -4.671875 C 14.707031 -4.671875 16.078125 -5.425781 17.046875 -6.9375 C 18.023438 -8.445312 18.515625 -10.335938 18.515625 -12.609375 C 18.515625 -14.867188 18.035156 -16.773438 17.078125 -18.328125 C 16.117188 -19.890625 14.738281 -20.671875 12.9375 -20.671875 C 11.71875 -20.671875 10.679688 -20.296875 9.828125 -19.546875 C 8.972656 -18.804688 8.335938 -17.820312 7.921875 -16.59375 C 7.503906 -15.375 7.296875 -14.046875 7.296875 -12.609375 C 7.296875 -10.378906 7.78125 -8.5 8.75 -6.96875 C 9.71875 -5.4375 11.113281 -4.671875 12.9375 -4.671875 Z M 12.9375 -4.671875 "/></g></g><g style="fill:#242424;fill-opacity:1;"><g transform="translate(198.418058, 252.056535)"><path style="stroke:none" d="M 12.90625 0.328125 C 10.476562 0.328125 8.394531 -0.265625 6.65625 -1.453125 C 4.925781 -2.640625 3.609375 -4.226562 2.703125 -6.21875 C 1.804688 -8.207031 1.359375 -10.363281 1.359375 -12.6875 C 1.359375 -15.007812 1.804688 -17.160156 2.703125 -19.140625 C 3.609375 -21.117188 4.925781 -22.695312 6.65625 -23.875 C 8.394531 -25.0625 10.476562 -25.65625 12.90625 -25.65625 C 15.851562 -25.65625 18.257812 -24.789062 20.125 -23.0625 C 21.988281 -21.34375 23.195312 -19.117188 23.75 -16.390625 L 18.328125 -16.390625 C 18.035156 -17.628906 17.414062 -18.664062 16.46875 -19.5 C 15.53125 -20.34375 14.363281 -20.765625 12.96875 -20.765625 C 11.050781 -20.765625 9.609375 -20.015625 8.640625 -18.515625 C 7.671875 -17.023438 7.1875 -15.082031 7.1875 -12.6875 C 7.1875 -10.238281 7.671875 -8.269531 8.640625 -6.78125 C 9.609375 -5.300781 11.050781 -4.5625 12.96875 -4.5625 C 14.332031 -4.5625 15.476562 -4.96875 16.40625 -5.78125 C 17.332031 -6.601562 17.945312 -7.578125 18.25 -8.703125 L 23.609375 -8.703125 C 23.085938 -6.066406 21.894531 -3.898438 20.03125 -2.203125 C 18.175781 -0.515625 15.800781 0.328125 12.90625 0.328125 Z M 12.90625 0.328125 "/></g></g><g style="fill:#242424;fill-opacity:1;"><g transform="translate(223.392977, 252.056535)"><path style="stroke:none" d="M 16.171875 -5.828125 L 8.125 -5.828125 L 6.328125 0 L 0.640625 0 L 9.59375 -25.15625 L 14.8125 -25.15625 L 23.6875 0 L 18 0 Z M 14.8125 -10.09375 L 12.21875 -18.21875 L 12 -18.21875 L 9.484375 -10.09375 Z M 14.8125 -10.09375 "/></g></g><g style="fill:#242424;fill-opacity:1;"><g transform="translate(247.577324, 252.056535)"><path style="stroke:none" d="M 18.078125 -4.890625 L 18.078125 0 L 1.875 0 L 1.875 -25.15625 L 7.515625 -25.15625 L 7.46875 -4.890625 Z M 18.078125 -4.890625 "/></g></g><g style="fill:#242424;fill-opacity:1;"><g transform="translate(170.724788, 270.822857)"><path style="stroke:none" d="M 1.625 -6.234375 L 1.625 -3.921875 L 4.5625 -3.9375 L 4.5625 -3.234375 L 1.625 -3.234375 L 1.625 0 L 0.75 0 L 0.75 -7.015625 L 4.953125 -7.015625 L 4.953125 -6.234375 Z M 1.625 -6.234375 "/></g></g><g style="fill:#242424;fill-opacity:1;"><g transform="translate(183.921797, 270.822857)"><path style="stroke:none" d="M 4.890625 -0.78125 L 4.890625 0 L 0.75 0 L 0.75 -7.015625 L 1.625 -7.015625 L 1.609375 -0.78125 Z M 4.890625 -0.78125 "/></g></g><g style="fill:#242424;fill-opacity:1;"><g transform="translate(197.249163, 270.822857)"><path style="stroke:none" d="M 0.78125 -7.015625 L 1.65625 -7.015625 L 1.65625 0 L 0.78125 0 Z M 0.78125 -7.015625 "/></g></g><g style="fill:#242424;fill-opacity:1;"><g transform="translate(207.708475, 270.822857)"><path style="stroke:none" d="M 2.734375 -3.515625 L 0.40625 -7.015625 L 1.375 -7.015625 L 3.296875 -4.125 L 3.34375 -4.125 L 5.25 -7.015625 L 6.21875 -7.015625 L 3.890625 -3.515625 L 6.21875 0 L 5.25 0 L 3.34375 -2.90625 L 3.296875 -2.90625 L 1.375 0 L 0.40625 0 Z M 2.734375 -3.515625 "/></g></g></g></svg>